<svg xmlns="http://www.w3.org/2000/svg" viewBox="0 0 64 64" fill="none">
  <defs>
    <linearGradient id="rolelink-gradient" x1="12" y1="8" x2="52" y2="56" gradientUnits="userSpaceOnUse">
      <stop stop-color="#6D5BFF" />
      <stop offset="1" stop-color="#3B82F6" />
    </linearGradient>
  </defs>
  <rect x="6" y="6" width="52" height="52" rx="16" fill="url(#rolelink-gradient)" />
  <path
    d="M24 22.5A4.5 4.5 0 0 1 28.5 18h7A4.5 4.5 0 0 1 40 22.5V24h3A5 5 0 0 1 48 29v10a5 5 0 0 1-5 5H21a5 5 0 0 1-5-5V29a5 5 0 0 1 5-5h3v-1.5Zm3 1.5h10v-1.5A1.5 1.5 0 0 0 35.5 21h-7a1.5 1.5 0 0 0-1.5 1.5V24Zm-8 8a2 2 0 0 1 2-2h22a2 2 0 0 1 2 2v7a2 2 0 0 1-2 2H21a2 2 0 0 1-2-2v-7Z"
    fill="#F8FAFC"
  />
</svg>
